<svg xmlns="http://www.w3.org/2000/svg" viewBox="0 0 1237 356" width="180" height="52">
	<defs>
		<clipPath clipPathUnits="userSpaceOnUse" id="cp1">
			<path d="M-565 -1334L1915 -1334L1915 2174L-565 2174Z" />
		</clipPath>
	</defs>
	<style>
		tspan { white-space:pre }
		.shp0 { fill: #2c2e35 } 
		.shp1 { fill: #ff2e17 } 
	</style>
	<g id="Page 0" clip-path="url(#cp1)">
		<g id="Group 1">
			<path id="Object 2" class="shp0" d="M1070.66 246.73L1078.7 246.73C1089.41 284.3 1112.49 305.23 1147.93 304.7C1184.45 304.15 1204.57 286.47 1205.89 256.41C1206.75 237.07 1185.66 214.23 1144.7 188.77C1097.64 159.51 1072.57 132.41 1073.89 106.69C1075.79 70.13 1101.19 49.6 1146.28 47.15C1160.26 46.39 1173.7 49.25 1186.53 53.53C1192.99 55.69 1198.34 56.76 1202.67 56.76C1205.89 56.76 1208.58 55.73 1210.7 53.53L1217.16 53.53L1223.55 105.04L1217.16 105.04C1202.12 73.93 1179.6 56.2 1149.51 56.76C1121.55 57.28 1105.65 71.75 1104.45 95.43C1103.54 113.59 1124.33 135.11 1164 159.79C1212.3 189.83 1237.69 218.34 1236.46 245.09C1234.48 288.08 1205.36 310.95 1152.74 312.73C1143.14 313.06 1128.52 311.61 1109.26 307.92C1100.57 306.26 1095.87 304.7 1094.77 304.7C1091.61 304.7 1088.87 306.28 1086.74 309.51L1080.28 309.51L1070.66 246.73ZM650.9 121.15L642.86 121.15C626.79 80.35 595.68 58.93 549.52 56.73C478.71 61.05 441.14 100.75 436.82 175.89C443.27 255.29 482.42 298.76 554.33 306.25C598.35 306.25 631.59 285.84 654.12 245.05L662.16 245.05C655.78 265.45 647.18 285.3 636.41 304.67C627.82 303.56 615.53 304.67 599.38 307.89C577.95 311.05 559.14 312.7 543.07 312.7C451.86 308.38 403.58 265.45 398.22 183.92C404.61 99.11 453.99 53.5 546.3 47.11C568.82 47.11 592.45 50.82 617.11 58.38C624.66 61.61 630.02 63.19 633.24 63.19C635.37 63.19 637.51 62.64 639.63 61.61C640.73 61.61 641.28 61.61 641.28 61.61L647.74 61.61L650.9 121.15ZM982.41 307.89L972.72 307.89L758.65 87.35L758.65 264.42C758.65 291.45 769.36 303.08 800.48 299.85L800.48 307.89L705.56 307.89L705.56 299.85L707.14 299.85C730.79 299.85 740.94 291.85 740.94 272.45L740.94 69.64C731.31 63.18 719.5 60.02 705.56 60.02L720.68 51.91L769.91 51.91L964.69 253.15L964.69 90.59C964.69 67.82 954.53 57.83 924.44 60.02L924.44 51.91L1021 51.91L1021 60.02C993.12 58.92 982.41 65.79 982.41 80.9L982.41 307.89Z" />
			<path id="Object 3" fill-rule="evenodd" class="shp1" d="M117.11 346.73L36.84 266.46L36.76 266.38L36.76 266.33C12.47 241.99 0.29 209.91 0.29 177.89C0.29 145.91 12.43 113.87 36.68 89.54L36.68 89.49L36.84 89.32L117.11 9.06L125.44 0.75L133.77 9.06L159.8 35.1L185.85 9.06L194.18 0.75L202.51 9.06L282.77 89.32L282.93 89.49L282.93 89.54C307.17 113.87 319.32 145.91 319.32 177.89C319.32 209.91 307.14 241.99 282.85 266.33L282.85 266.38L282.77 266.46L202.51 346.73L194.18 355.08L185.85 346.73L159.8 320.69L133.77 346.73L125.44 355.08L117.11 346.73ZM176.47 51.76L214.03 89.32L214.11 89.41L214.11 89.46C238.41 113.79 250.58 145.87 250.58 177.9C250.58 209.87 238.43 241.9 214.19 266.25L214.19 266.3L214.03 266.46L176.47 304.03L194.18 321.74L266.11 249.8L266.19 249.72L266.21 249.75C285.9 230 295.77 203.93 295.77 177.89C295.77 151.87 285.93 125.85 266.29 106.12L266.27 106.15L194.18 34.05L176.47 51.76ZM125.44 321.74L143.14 304.03L105.58 266.46L105.42 266.3L105.42 266.25C81.17 241.9 69.02 209.87 69.02 177.9C69.02 145.87 81.2 113.79 105.5 89.46L105.5 89.41L105.58 89.32L143.14 51.76L125.44 34.05L53.5 105.98L53.34 106.15L53.32 106.12C33.68 125.85 23.84 151.87 23.84 177.89C23.84 203.93 33.7 230 53.39 249.75L53.42 249.72L125.44 321.74ZM159.8 68.42L122.24 105.98L122.16 106.06L122.13 106.04C102.44 125.78 92.58 151.85 92.58 177.9C92.58 203.92 102.41 229.94 122.05 249.67L122.08 249.64L159.8 287.37L197.37 249.8L197.53 249.64L197.56 249.67C217.2 229.94 227.03 203.92 227.03 177.9C227.03 151.85 217.17 125.78 197.48 106.04L197.45 106.06L159.8 68.42Z" />
		</g>
	</g>
</svg>